<svg width="27" height="27" viewBox="0 0 27 27" fill="none" xmlns="http://www.w3.org/2000/svg">
<path fill-rule="evenodd" clip-rule="evenodd" d="M9 6.5C9 5.11929 10.1193 4 11.5 4H15.5C16.8807 4 18 5.11929 18 6.5V7H18.5H22.5C23.3284 7 24 7.67157 24 8.5V20.5C24 21.3284 23.3284 22 22.5 22H4.5C3.67157 22 3 21.3284 3 20.5V8.5C3 7.67157 3.67157 7 4.5 7H8.5H9V6.5ZM11.5 3C9.73676 3 8.27806 4.30385 8.03544 6H4.5C3.11929 6 2 7.11929 2 8.5V20.5C2 21.8807 3.11929 23 4.5 23H22.5C23.8807 23 25 21.8807 25 20.5V8.5C25 7.11929 23.8807 6 22.5 6H18.9646C18.7219 4.30385 17.2632 3 15.5 3H11.5ZM9 13.5C9 11.0147 11.0147 9 13.5 9C15.9853 9 18 11.0147 18 13.5C18 15.9853 15.9853 18 13.5 18C11.0147 18 9 15.9853 9 13.5ZM13.5 8C10.4624 8 8 10.4624 8 13.5C8 16.5376 10.4624 19 13.5 19C16.5376 19 19 16.5376 19 13.5C19 10.4624 16.5376 8 13.5 8Z" fill="black"/>
</svg>
