<svg width="27" height="27" viewBox="0 0 27 27" fill="none" xmlns="http://www.w3.org/2000/svg">
<mask id="path-1-inside-1" fill="white">
<path fill-rule="evenodd" clip-rule="evenodd" d="M21.6646 17.9958C22.5139 16.5259 23 14.8197 23 13C23 7.47715 18.5228 3 13 3C7.47715 3 3 7.47715 3 13C3 18.5228 7.47715 23 13 23C14.8316 23 16.5481 22.5076 18.0245 21.648L23.46 23.4897L21.6646 17.9958Z"/>
</mask>
<path d="M21.6646 17.9958L20.7987 17.4955L20.5754 17.8821L20.7141 18.3065L21.6646 17.9958ZM18.0245 21.648L18.3454 20.7008L17.9145 20.5548L17.5213 20.7838L18.0245 21.648ZM23.46 23.4897L23.1391 24.4368L25.0311 25.0779L24.4106 23.1791L23.46 23.4897ZM22 13C22 14.6394 21.5626 16.1736 20.7987 17.4955L22.5304 18.4961C23.4653 16.8782 24 15 24 13H22ZM13 4C17.9706 4 22 8.02944 22 13H24C24 6.92487 19.0751 2 13 2V4ZM4 13C4 8.02944 8.02944 4 13 4V2C6.92487 2 2 6.92487 2 13H4ZM13 22C8.02944 22 4 17.9706 4 13H2C2 19.0751 6.92487 24 13 24V22ZM17.5213 20.7838C16.1936 21.5569 14.6501 22 13 22V24C15.0131 24 16.9027 23.4583 18.5277 22.5121L17.5213 20.7838ZM23.781 22.5426L18.3454 20.7008L17.7036 22.5951L23.1391 24.4368L23.781 22.5426ZM20.7141 18.3065L22.5095 23.8004L24.4106 23.1791L22.6151 17.6852L20.7141 18.3065Z" fill="black" mask="url(#path-1-inside-1)"/>
</svg>
