<svg width="27" height="27" viewBox="0 0 27 27" fill="none" xmlns="http://www.w3.org/2000/svg">
<path d="M13.3045 6.94333L13.6793 7.36778L14.0541 6.94333L14.6644 6.25219C16.4374 4.24435 19.7022 3.90664 21.9374 5.52669C22.9971 6.29471 23.4472 7.47394 23.4956 8.71964C23.5444 9.97394 23.1801 11.2347 22.6847 12.0588C19.9189 16.6592 17.7874 18.9679 13.6668 22.3634C11.4812 20.7085 9.89751 19.5015 8.54148 18.1483C7.13212 16.7419 5.96108 15.1687 4.64392 12.7601C3.16181 10.0499 3.27896 7.07934 5.4212 5.52669C7.65643 3.90664 10.9212 4.24436 12.6942 6.25219L13.3045 6.94333Z" stroke="black" stroke-linecap="round"/>
</svg>
